<?xml version="1.0" standalone="no"?>
<!DOCTYPE svg PUBLIC "-//W3C//DTD SVG 20010904//EN"
 "http://www.w3.org/TR/2001/REC-SVG-20010904/DTD/svg10.dtd">
<svg version="1.0" xmlns="http://www.w3.org/2000/svg"
 width="640.000000pt" height="640.000000pt" viewBox="0 0 640.000000 640.000000"
 preserveAspectRatio="xMidYMid meet">
<metadata>
Created by potrace 1.11, written by Peter Selinger 2001-2013
</metadata>
<g transform="translate(0.000000,640.000000) scale(0.100000,-0.100000)"
fill="#000000" stroke="none">
<path d="M2905 6389 c-217 -21 -470 -77 -696 -155 -153 -52 -471 -205 -604
-290 -620 -396 -1066 -982 -1278 -1684 -87 -286 -121 -525 -121 -855 0 -260 9
-360 54 -585 94 -472 299 -917 590 -1280 46 -57 51 -69 46 -100 -16 -99 -27
-340 -21 -455 13 -268 51 -441 136 -614 86 -175 218 -286 391 -330 114 -29
349 -44 579 -38 384 10 631 78 782 217 55 51 60 59 64 107 5 46 3 54 -21 78
l-27 27 43 -6 c99 -14 558 -18 674 -6 246 25 501 83 732 166 276 100 614 290
852 480 104 83 364 342 446 444 332 411 550 896 633 1408 86 524 29 1077 -161
1565 -415 1066 -1389 1802 -2523 1907 -128 12 -440 11 -570 -1z m660 -323
c590 -87 1097 -335 1514 -741 364 -355 607 -773 731 -1259 134 -527 108 -1075
-76 -1582 -309 -854 -1025 -1492 -1909 -1702 -206 -49 -321 -63 -570 -69
l-230 -6 -24 44 c-14 24 -45 75 -69 113 -41 62 -44 70 -32 90 42 65 71 129 76
170 6 39 3 52 -20 86 -38 58 -47 86 -36 115 13 35 93 72 197 90 398 73 609
147 721 254 63 60 84 102 84 163 0 82 -53 133 -171 163 -226 58 -517 19 -1171
-154 -289 -77 -586 -56 -827 59 -95 45 -94 44 -112 215 -14 134 -42 235 -96
349 -76 159 -162 234 -295 255 -114 19 -136 3 -160 -114 -6 -33 -21 -89 -32
-125 -13 -44 -22 -111 -27 -210 -7 -139 -9 -148 -41 -208 -47 -89 -62 -94
-100 -35 -55 87 -167 326 -214 455 -292 811 -183 1698 296 2415 211 316 526
617 847 807 373 221 726 333 1196 380 82 8 454 -4 550 -18z m-2231 -3457 c33
-26 103 -146 133 -227 30 -82 39 -185 24 -259 -16 -73 -2 -194 29 -258 23 -48
99 -128 142 -151 14 -7 71 -26 125 -40 95 -26 108 -27 383 -27 285 -1 392 6
749 49 109 14 137 20 150 37 35 42 65 65 100 75 104 32 347 45 390 23 20 -11
21 -15 8 -34 -33 -52 -320 -160 -377 -142 -45 14 -267 -63 -370 -129 -114 -74
-143 -138 -116 -256 23 -102 20 -144 -14 -230 -37 -93 -38 -149 -5 -236 14
-36 25 -78 25 -93 0 -15 -17 -61 -37 -102 -31 -62 -38 -89 -43 -164 -4 -50
-15 -105 -23 -122 -36 -68 -195 -138 -396 -172 -252 -43 -668 -20 -808 43 -78
36 -167 100 -208 150 -65 79 -132 258 -167 445 -18 95 -22 151 -21 311 0 279
26 421 146 805 28 90 31 110 27 200 -12 278 3 451 42 501 25 30 75 32 112 3z"/>
<path d="M1844 5474 c-187 -31 -366 -119 -483 -237 -80 -81 -111 -131 -111
-180 0 -45 35 -87 73 -87 59 0 204 69 315 149 108 79 268 124 442 123 63 -1
129 -5 146 -10 16 -5 66 -35 110 -67 160 -115 298 -162 346 -119 17 16 16 20
-19 86 -53 101 -173 211 -295 271 -174 86 -320 106 -524 71z"/>
<path d="M4220 5095 c-148 -20 -266 -52 -341 -91 -120 -63 -159 -134 -104
-189 27 -28 31 -29 106 -15 231 41 674 64 988 50 177 -7 219 -6 242 5 24 13
39 34 39 54 0 36 -142 117 -296 170 l-91 31 -224 -1 c-123 -1 -267 -7 -319
-14z"/>
<path d="M2218 4835 c-276 -101 -396 -603 -198 -829 49 -55 103 -80 175 -80
79 1 145 35 216 111 158 171 204 465 105 662 -64 124 -182 179 -298 136z"/>
<path d="M4011 4614 c-74 -37 -144 -113 -190 -205 -55 -110 -75 -205 -69 -338
6 -127 30 -198 90 -265 54 -63 103 -86 175 -86 199 0 374 250 373 534 -1 106
-11 161 -46 231 -71 142 -204 193 -333 129z"/>
<path d="M2461 2710 c-75 -5 -97 -11 -107 -25 -17 -24 -17 -36 -1 -59 12 -16
25 -18 98 -15 222 10 717 2 844 -15 273 -35 475 -89 625 -167 85 -44 123 -47
135 -9 10 33 -11 56 -92 98 -195 101 -467 165 -817 192 -141 11 -536 11 -685
0z"/>
</g>
</svg>
